<svg width="298" height="166" viewBox="0 0 298 166" fill="none" xmlns="http://www.w3.org/2000/svg">
<path d="M73.0248 -16H230.755L244 5.4402V92.3295L59.7803 93.4579V7.69707L73.0248 -16Z" fill="url(#paint0_linear_50_428)" fill-opacity="0.2"/>
<g filter="url(#filter0_f_50_428)">
<path d="M69.4121 -16H233.163V5.44021V66.3755H69.4121V7.69707V-16Z" fill="url(#paint1_linear_50_428)" fill-opacity="0.3"/>
</g>
<g filter="url(#filter1_ddi_50_428)">
<rect x="54" y="49" width="189.795" height="63" rx="31.5" fill="#27292D" shape-rendering="crispEdges"/>
<rect x="54.5" y="49.5" width="188.795" height="62" rx="31" stroke="#F0B912" shape-rendering="crispEdges"/>
<path d="M81.5495 77.468C81.5815 77.772 81.6135 78.076 81.6455 78.38C81.7415 79.644 81.7895 80.956 81.4055 82.188C81.2135 82.78 80.9095 83.324 80.4935 83.772C79.9975 84.3 79.3415 84.668 78.6855 84.956C77.9495 85.276 77.1495 85.468 76.3655 85.26C75.6295 85.084 74.9255 84.748 74.3335 84.284C73.1495 83.388 72.6375 81.884 72.4775 80.444C72.3975 79.772 72.4295 79.1 72.8935 78.556C73.3735 78.028 74.1415 77.58 74.8775 77.756C75.0695 77.788 75.1975 77.884 75.3415 78.012C75.4695 78.124 75.5975 78.204 75.7095 78.348C75.9495 78.668 76.0455 79.084 76.1255 79.468C76.2215 79.868 76.2855 80.268 76.3815 80.668C76.4295 80.892 76.4775 81.116 76.5735 81.324C76.5895 81.372 76.6375 81.596 76.7015 81.596C76.7815 81.596 76.9415 81.404 76.9895 81.356C77.0855 81.26 77.1815 81.148 77.2455 81.02C77.4055 80.764 77.5175 80.476 77.5975 80.172C77.7415 79.564 77.7895 78.94 77.8055 78.332C77.8375 77.468 77.7255 76.62 77.6455 75.756C77.5335 74.828 77.3575 73.884 77.2775 72.94C77.2135 72.092 78.2215 71.852 78.8615 71.74C79.0855 71.692 79.2935 71.676 79.5175 71.628C79.6775 71.58 79.8535 71.548 80.0295 71.564C80.3975 71.612 80.7335 71.852 80.8935 72.188C81.0535 72.492 81.0855 72.828 81.1175 73.164C81.1815 73.644 81.2295 74.108 81.2775 74.588C81.3735 75.548 81.4695 76.508 81.5495 77.468ZM88.1865 76.188C87.4185 77.052 87.1945 78.316 87.4345 79.436C87.5945 80.124 87.9785 80.908 88.7465 81.052C89.5625 81.212 90.3305 80.684 90.6185 79.932C90.8905 79.164 90.7305 78.38 90.3945 77.676C90.2025 77.276 89.9785 76.876 89.6585 76.556C89.2425 76.156 88.7305 76.092 88.1865 76.188ZM94.6505 77.58C94.6505 77.948 94.6505 78.316 94.6505 78.684C94.6665 80.22 94.5865 81.868 93.8185 83.228C93.0345 84.604 91.6105 85.26 90.0585 85.26C89.6585 85.26 89.2585 85.228 88.8585 85.228C88.4105 85.212 87.9625 85.164 87.5145 85.068C86.6665 84.908 85.8025 84.636 85.0505 84.204C83.8185 83.484 83.0345 82.22 82.7785 80.828C82.5385 79.5 82.5225 78.108 82.7305 76.78C82.9545 75.468 83.4505 74.156 84.4265 73.196C84.6505 72.972 84.9385 72.796 85.1785 72.572C85.4185 72.332 85.7705 72.284 86.0905 72.156C86.5545 71.996 87.0345 71.884 87.5305 71.804C88.6505 71.628 89.8025 71.596 90.9225 71.804C91.8825 71.996 92.9385 72.396 93.4825 73.26C93.6105 73.452 93.7225 73.676 93.7705 73.916C93.8665 74.268 94.0905 74.604 94.2185 74.956C94.5225 75.788 94.6185 76.7 94.6505 77.58ZM100.47 72.556C100.742 73.148 100.582 73.836 100.566 74.46C100.518 75.244 100.502 76.028 100.47 76.828C100.406 78.316 100.294 79.82 100.31 81.308C100.31 82.268 100.438 83.372 99.9898 84.252C99.7658 84.716 99.3818 85.02 98.8698 85.084C98.3418 85.164 97.7338 85.132 97.2218 85.036C96.2138 84.844 95.8138 83.964 95.6698 83.036C95.4938 81.948 95.4938 80.812 95.4458 79.708C95.3978 78.284 95.3818 76.86 95.3818 75.42C95.3818 74.732 95.3818 74.028 95.3978 73.324C95.3978 72.844 95.4298 72.364 95.9098 72.124C96.0858 72.028 96.2938 71.98 96.5018 71.996C96.5818 71.996 96.6618 72.012 96.7258 72.028C96.7738 72.044 96.8218 72.076 96.8698 72.076C96.9338 72.076 96.9498 72.044 97.0298 71.996C97.2218 71.9 97.4618 71.9 97.6858 71.868C97.8778 71.836 98.0858 71.82 98.2938 71.804C99.0458 71.756 100.086 71.788 100.47 72.556ZM112.532 73.564C112.66 75.228 112.58 76.908 112.58 78.556C112.58 80.06 112.612 81.564 112.516 83.052C112.484 83.42 112.452 83.772 112.452 84.124C112.452 84.396 112.356 84.62 112.18 84.828C111.988 85.036 111.78 85.18 111.492 85.228C111.348 85.244 111.22 85.212 111.076 85.196C110.948 85.196 110.804 85.212 110.66 85.196C109.38 85.052 108.644 83.676 108.084 82.668C107.924 82.38 107.764 82.076 107.588 81.788C107.396 81.5 107.092 81.244 106.836 80.988C106.324 80.46 105.828 79.916 105.364 79.34C105.412 79.74 105.46 80.14 105.508 80.54C105.62 81.324 105.716 82.108 105.748 82.892C105.748 83.116 105.764 83.34 105.732 83.564C105.7 83.724 105.668 83.868 105.684 84.044C105.7 84.332 105.556 84.604 105.38 84.812C105.156 85.052 104.932 85.132 104.612 85.18C104.228 85.244 103.844 85.324 103.46 85.372C103.268 85.388 103.076 85.404 102.9 85.356C102.74 85.308 102.612 85.228 102.468 85.18C102.18 85.116 101.94 84.94 101.78 84.7C101.62 84.444 101.556 84.14 101.54 83.836C101.524 83.436 101.476 83.036 101.476 82.652C101.476 81.836 101.572 81.036 101.62 80.22C101.7 78.556 101.556 76.876 101.524 75.212C101.524 74.796 101.524 74.364 101.524 73.948C101.524 73.596 101.492 73.212 101.556 72.86C101.62 72.444 101.924 72.108 102.324 71.996C102.708 71.868 103.14 71.932 103.46 72.156C103.54 72.22 103.62 72.3 103.684 72.38C103.764 72.476 103.876 72.54 103.988 72.636C104.116 72.764 104.212 72.892 104.372 72.972C104.532 73.052 104.676 73.132 104.82 73.26C105.38 73.74 105.732 74.38 106.212 74.94C106.708 75.548 107.188 76.172 107.652 76.812C107.764 76.972 107.892 77.148 108.004 77.308C108.116 77.468 108.276 77.58 108.436 77.692C108.5 77.74 108.612 77.868 108.708 77.884C108.74 77.884 108.82 77.868 108.852 77.852C108.884 77.852 108.964 77.852 108.996 77.836C109.06 77.804 109.012 77.82 109.044 77.772C109.076 77.692 109.06 77.596 109.06 77.516C109.028 76.78 108.996 76.06 108.948 75.324C108.9 74.604 108.852 73.884 108.964 73.18C109.06 72.588 109.252 71.9 109.86 71.644C110.148 71.532 110.532 71.516 110.82 71.548C111.172 71.58 111.46 71.676 111.732 71.9C112.228 72.316 112.484 72.924 112.532 73.564ZM128.645 80.492C128.933 80.796 129.061 81.276 129.077 81.692C129.109 82.556 128.613 83.34 127.973 83.9C127.653 84.188 127.269 84.428 126.853 84.588C126.597 84.684 126.341 84.732 126.085 84.796C125.829 84.876 125.589 85.004 125.333 85.084C124.357 85.372 123.317 85.228 122.421 84.732C122.309 84.668 122.197 84.588 122.069 84.556C121.957 84.54 121.861 84.508 121.749 84.476C121.525 84.396 121.317 84.316 121.109 84.188C120.709 83.964 120.373 83.644 120.117 83.244C119.621 82.492 119.461 81.58 119.445 80.684C119.413 79.596 119.493 78.508 119.685 77.436C119.877 76.348 120.149 75.292 120.517 74.268C120.661 73.82 120.789 73.276 121.109 72.908C121.253 72.732 121.429 72.636 121.637 72.54C121.797 72.444 121.941 72.3 122.101 72.188C122.853 71.676 123.941 71.644 124.821 71.708C125.717 71.772 126.645 71.98 127.397 72.476C128.661 73.324 129.685 75.34 128.757 76.764C128.341 77.388 127.605 77.66 126.901 77.484C126.469 77.372 126.133 77.148 126.005 76.7C125.909 76.348 125.653 75.868 125.365 75.628C125.141 75.436 124.741 75.42 124.453 75.452C124.101 75.5 123.829 75.82 123.669 76.124C123.301 76.796 123.205 77.612 123.125 78.364C123.077 78.876 123.029 79.356 123.141 79.868C123.253 80.38 123.445 80.86 123.717 81.308C123.845 81.532 123.989 81.756 124.181 81.948C124.213 81.98 124.245 82.012 124.277 82.044C124.357 82.124 124.357 82.124 124.469 82.124C124.549 82.124 124.645 82.076 124.725 82.044C125.045 81.948 125.349 81.852 125.637 81.724C125.893 81.596 126.197 81.42 126.277 81.132C126.325 80.956 126.293 80.764 126.341 80.572C126.389 80.396 126.501 80.22 126.645 80.108C126.965 79.82 127.381 79.644 127.813 79.724C128.213 79.82 128.517 80.108 128.645 80.492ZM136.093 76.188C135.325 77.052 135.101 78.316 135.341 79.436C135.501 80.124 135.885 80.908 136.653 81.052C137.469 81.212 138.237 80.684 138.525 79.932C138.797 79.164 138.637 78.38 138.301 77.676C138.109 77.276 137.885 76.876 137.565 76.556C137.149 76.156 136.637 76.092 136.093 76.188ZM142.557 77.58C142.557 77.948 142.557 78.316 142.557 78.684C142.573 80.22 142.493 81.868 141.725 83.228C140.941 84.604 139.517 85.26 137.965 85.26C137.565 85.26 137.165 85.228 136.765 85.228C136.317 85.212 135.869 85.164 135.421 85.068C134.573 84.908 133.709 84.636 132.957 84.204C131.725 83.484 130.941 82.22 130.685 80.828C130.445 79.5 130.429 78.108 130.637 76.78C130.861 75.468 131.357 74.156 132.333 73.196C132.557 72.972 132.845 72.796 133.085 72.572C133.325 72.332 133.677 72.284 133.997 72.156C134.461 71.996 134.941 71.884 135.437 71.804C136.557 71.628 137.709 71.596 138.829 71.804C139.789 71.996 140.845 72.396 141.389 73.26C141.517 73.452 141.629 73.676 141.677 73.916C141.773 74.268 141.997 74.604 142.125 74.956C142.429 75.788 142.525 76.7 142.557 77.58ZM155.176 84.204C155.24 84.892 154.728 85.356 154.072 85.34C154.008 85.34 153.944 85.324 153.896 85.324C153.032 85.5 152.088 85.052 151.752 84.236C151.64 83.964 151.592 83.66 151.56 83.356C151.528 83.084 151.448 82.796 151.4 82.508C151.304 81.932 151.272 81.356 151.24 80.764C151.224 80.428 151.208 80.092 151.192 79.756C151.176 79.628 151.208 79.468 151.176 79.34C151.144 79.228 151.176 79.228 151.08 79.292C151.032 79.324 151 79.372 150.952 79.42C150.584 79.788 150.168 80.172 149.656 80.332C148.584 80.668 147.752 79.708 147.208 78.924C147.192 79.34 147.176 79.772 147.16 80.188C147.112 81.004 147.064 81.836 146.92 82.636C146.856 83.052 146.776 83.452 146.68 83.852C146.6 84.172 146.472 84.556 146.248 84.828C145.832 85.324 145 85.548 144.408 85.276C144.312 85.244 144.248 85.164 144.168 85.116C144.104 85.084 144.024 85.068 143.96 85.036C143.832 84.972 143.72 84.876 143.624 84.78C143.416 84.556 143.288 84.268 143.288 83.964C143.304 83.66 143.448 83.388 143.448 83.084C143.464 82.716 143.416 82.364 143.384 82.012C143.288 81.228 143.368 80.412 143.384 79.612C143.432 77.868 143.48 76.14 143.528 74.412C143.544 74.188 143.544 73.98 143.544 73.756C143.56 73.58 143.512 73.404 143.528 73.228C143.576 72.908 143.72 72.588 143.88 72.316C144.216 71.772 144.792 71.436 145.448 71.532C145.752 71.58 146.024 71.724 146.264 71.916C146.392 72.044 146.488 72.188 146.616 72.3C146.744 72.412 146.872 72.508 147 72.636C147.464 73.084 147.88 73.596 148.36 74.044C148.504 74.172 148.648 74.316 148.808 74.444C148.872 74.492 148.952 74.556 149.032 74.604C149.032 74.62 149.144 74.716 149.16 74.716H149.176C149.176 74.7 149.192 74.684 149.224 74.668C149.336 74.604 149.432 74.444 149.528 74.364C149.672 74.22 149.816 74.092 149.96 73.948C150.28 73.676 150.584 73.404 150.904 73.148C151.208 72.892 151.576 72.668 151.88 72.38C151.992 72.268 152.072 72.124 152.216 72.012C152.328 71.932 152.456 71.884 152.584 71.852C152.872 71.772 153.24 71.836 153.512 71.916C153.544 71.932 153.576 71.948 153.608 71.964C154.168 71.996 154.648 72.38 154.712 72.956C154.776 73.532 154.744 74.14 154.76 74.716C154.76 75.356 154.776 75.98 154.792 76.604C154.824 77.9 154.84 79.18 154.872 80.46C154.872 81.084 154.888 81.724 154.952 82.348C155.016 82.972 155.128 83.596 155.176 84.204ZM167.864 84.204C167.928 84.892 167.416 85.356 166.76 85.34C166.696 85.34 166.632 85.324 166.584 85.324C165.72 85.5 164.776 85.052 164.44 84.236C164.328 83.964 164.28 83.66 164.248 83.356C164.216 83.084 164.136 82.796 164.088 82.508C163.992 81.932 163.96 81.356 163.928 80.764C163.912 80.428 163.896 80.092 163.88 79.756C163.864 79.628 163.896 79.468 163.864 79.34C163.832 79.228 163.864 79.228 163.768 79.292C163.72 79.324 163.688 79.372 163.64 79.42C163.272 79.788 162.856 80.172 162.344 80.332C161.272 80.668 160.44 79.708 159.896 78.924C159.88 79.34 159.864 79.772 159.848 80.188C159.8 81.004 159.752 81.836 159.608 82.636C159.544 83.052 159.464 83.452 159.368 83.852C159.288 84.172 159.16 84.556 158.936 84.828C158.52 85.324 157.688 85.548 157.096 85.276C157 85.244 156.936 85.164 156.856 85.116C156.792 85.084 156.712 85.068 156.648 85.036C156.52 84.972 156.408 84.876 156.312 84.78C156.104 84.556 155.976 84.268 155.976 83.964C155.992 83.66 156.136 83.388 156.136 83.084C156.152 82.716 156.104 82.364 156.072 82.012C155.976 81.228 156.056 80.412 156.072 79.612C156.12 77.868 156.168 76.14 156.216 74.412C156.232 74.188 156.232 73.98 156.232 73.756C156.248 73.58 156.2 73.404 156.216 73.228C156.264 72.908 156.408 72.588 156.568 72.316C156.904 71.772 157.48 71.436 158.136 71.532C158.44 71.58 158.712 71.724 158.952 71.916C159.08 72.044 159.176 72.188 159.304 72.3C159.432 72.412 159.56 72.508 159.688 72.636C160.152 73.084 160.568 73.596 161.048 74.044C161.192 74.172 161.336 74.316 161.496 74.444C161.56 74.492 161.64 74.556 161.72 74.604C161.72 74.62 161.832 74.716 161.848 74.716H161.864C161.864 74.7 161.88 74.684 161.912 74.668C162.024 74.604 162.12 74.444 162.216 74.364C162.36 74.22 162.504 74.092 162.648 73.948C162.968 73.676 163.272 73.404 163.592 73.148C163.896 72.892 164.264 72.668 164.568 72.38C164.68 72.268 164.76 72.124 164.904 72.012C165.016 71.932 165.144 71.884 165.272 71.852C165.56 71.772 165.928 71.836 166.2 71.916C166.232 71.932 166.264 71.948 166.296 71.964C166.856 71.996 167.336 72.38 167.4 72.956C167.464 73.532 167.432 74.14 167.448 74.716C167.448 75.356 167.464 75.98 167.48 76.604C167.512 77.9 167.528 79.18 167.56 80.46C167.56 81.084 167.576 81.724 167.64 82.348C167.704 82.972 167.816 83.596 167.864 84.204ZM179.463 73.356C179.511 73.884 179.575 74.396 179.639 74.924C179.895 77.1 180.167 79.372 179.575 81.516C179.111 83.18 177.831 84.284 176.215 84.812C174.711 85.308 172.935 85.468 171.463 84.812C169.991 84.172 169.063 82.812 168.903 81.212C168.663 78.86 168.663 76.492 168.663 74.14C168.663 73.836 168.679 73.532 168.679 73.244C168.679 73.004 168.663 72.748 168.711 72.508C168.807 72.156 169.063 71.868 169.415 71.756C169.575 71.692 169.751 71.66 169.927 71.676C170.007 71.676 170.103 71.692 170.183 71.692C170.311 71.692 170.423 71.676 170.551 71.676C170.791 71.708 171.031 71.788 171.255 71.916C171.431 72.012 171.623 72.14 171.783 72.284C171.959 72.444 172.007 72.652 172.087 72.86C172.183 73.1 172.279 73.324 172.327 73.564C172.471 74.076 172.519 74.62 172.551 75.148C172.615 76.3 172.583 77.452 172.695 78.588C172.743 79.1 172.839 79.612 172.935 80.124C172.983 80.364 173.031 80.604 173.111 80.828C173.143 80.94 173.191 81.036 173.239 81.132C173.303 81.26 173.319 81.308 173.447 81.308C174.151 81.34 175.191 81.34 175.607 80.684C175.879 80.268 175.879 79.74 175.911 79.276C175.959 78.716 176.039 78.156 176.167 77.596C176.215 77.324 176.199 77.02 176.199 76.748C176.215 76.476 176.231 76.22 176.263 75.964C176.295 75.82 176.343 75.66 176.343 75.5C176.359 75.372 176.343 75.228 176.343 75.084C176.327 74.796 176.327 74.524 176.343 74.236C176.407 73.388 176.695 72.364 177.671 72.188C178.039 72.124 178.471 72.22 178.807 72.38C179.175 72.572 179.431 72.94 179.463 73.356ZM191.953 73.564C192.081 75.228 192.001 76.908 192.001 78.556C192.001 80.06 192.033 81.564 191.937 83.052C191.905 83.42 191.873 83.772 191.873 84.124C191.873 84.396 191.777 84.62 191.601 84.828C191.409 85.036 191.201 85.18 190.913 85.228C190.769 85.244 190.641 85.212 190.497 85.196C190.369 85.196 190.225 85.212 190.081 85.196C188.801 85.052 188.065 83.676 187.505 82.668C187.345 82.38 187.185 82.076 187.009 81.788C186.817 81.5 186.513 81.244 186.257 80.988C185.745 80.46 185.249 79.916 184.785 79.34C184.833 79.74 184.881 80.14 184.929 80.54C185.041 81.324 185.137 82.108 185.169 82.892C185.169 83.116 185.185 83.34 185.153 83.564C185.121 83.724 185.089 83.868 185.105 84.044C185.121 84.332 184.977 84.604 184.801 84.812C184.577 85.052 184.353 85.132 184.033 85.18C183.649 85.244 183.265 85.324 182.881 85.372C182.689 85.388 182.497 85.404 182.321 85.356C182.161 85.308 182.033 85.228 181.889 85.18C181.601 85.116 181.361 84.94 181.201 84.7C181.041 84.444 180.977 84.14 180.961 83.836C180.945 83.436 180.897 83.036 180.897 82.652C180.897 81.836 180.993 81.036 181.041 80.22C181.121 78.556 180.977 76.876 180.945 75.212C180.945 74.796 180.945 74.364 180.945 73.948C180.945 73.596 180.913 73.212 180.977 72.86C181.041 72.444 181.345 72.108 181.745 71.996C182.129 71.868 182.561 71.932 182.881 72.156C182.961 72.22 183.041 72.3 183.105 72.38C183.185 72.476 183.297 72.54 183.409 72.636C183.537 72.764 183.633 72.892 183.793 72.972C183.953 73.052 184.097 73.132 184.241 73.26C184.801 73.74 185.153 74.38 185.633 74.94C186.129 75.548 186.609 76.172 187.073 76.812C187.185 76.972 187.313 77.148 187.425 77.308C187.537 77.468 187.697 77.58 187.857 77.692C187.921 77.74 188.033 77.868 188.129 77.884C188.161 77.884 188.241 77.868 188.273 77.852C188.305 77.852 188.385 77.852 188.417 77.836C188.481 77.804 188.433 77.82 188.465 77.772C188.497 77.692 188.481 77.596 188.481 77.516C188.449 76.78 188.417 76.06 188.369 75.324C188.321 74.604 188.273 73.884 188.385 73.18C188.481 72.588 188.673 71.9 189.281 71.644C189.569 71.532 189.953 71.516 190.241 71.548C190.593 71.58 190.881 71.676 191.153 71.9C191.649 72.316 191.905 72.924 191.953 73.564ZM197.907 72.556C198.179 73.148 198.019 73.836 198.003 74.46C197.955 75.244 197.939 76.028 197.907 76.828C197.843 78.316 197.731 79.82 197.747 81.308C197.747 82.268 197.875 83.372 197.427 84.252C197.203 84.716 196.819 85.02 196.307 85.084C195.779 85.164 195.171 85.132 194.659 85.036C193.651 84.844 193.251 83.964 193.107 83.036C192.931 81.948 192.931 80.812 192.883 79.708C192.835 78.284 192.819 76.86 192.819 75.42C192.819 74.732 192.819 74.028 192.835 73.324C192.835 72.844 192.867 72.364 193.347 72.124C193.523 72.028 193.731 71.98 193.939 71.996C194.019 71.996 194.099 72.012 194.163 72.028C194.211 72.044 194.259 72.076 194.307 72.076C194.371 72.076 194.387 72.044 194.467 71.996C194.659 71.9 194.899 71.9 195.123 71.868C195.315 71.836 195.523 71.82 195.731 71.804C196.483 71.756 197.523 71.788 197.907 72.556ZM210.657 73.724C210.657 74.044 210.609 74.348 210.481 74.636C209.937 75.98 208.273 76.284 206.977 76.284C206.929 76.284 206.721 76.252 206.689 76.284C206.657 76.316 206.657 76.54 206.657 76.588C206.641 76.796 206.609 77.02 206.593 77.244C206.561 77.66 206.529 78.076 206.513 78.492C206.497 78.908 206.449 79.34 206.481 79.756C206.529 80.172 206.593 80.588 206.641 81.004C206.737 81.836 206.801 82.684 206.817 83.532C206.817 84.156 206.753 84.748 206.113 85.02C205.857 85.116 205.569 85.1 205.313 85.164C204.977 85.26 204.641 85.244 204.321 85.148C203.681 84.956 203.201 84.444 202.961 83.836C202.721 83.228 202.689 82.572 202.657 81.932C202.593 81.1 202.529 80.268 202.449 79.452C202.369 78.604 202.273 77.772 202.161 76.94C202.129 76.748 202.113 76.572 202.097 76.396C202.081 76.3 202.081 76.204 202.065 76.124C202.049 75.98 202.017 75.996 201.889 75.948C201.521 75.82 201.153 75.676 200.785 75.516C200.209 75.276 199.665 74.972 199.265 74.476C199.057 74.188 198.913 73.868 198.977 73.5C199.009 73.34 199.089 73.212 199.185 73.068C199.265 72.94 199.265 72.812 199.329 72.668C199.617 71.964 200.321 71.932 200.977 71.98C201.729 72.044 202.449 72.252 203.201 72.316C203.985 72.364 204.769 72.204 205.537 72.06C206.305 71.932 207.073 71.756 207.841 71.692C208.529 71.644 209.233 71.74 209.809 72.172C210.305 72.524 210.657 73.1 210.657 73.724ZM223.797 73.068C223.909 73.372 223.845 73.692 223.685 73.98C223.477 74.316 223.237 74.652 223.013 74.972C222.549 75.628 222.053 76.252 221.525 76.844C221.013 77.436 220.517 78.044 220.117 78.732C220.005 78.924 220.021 79.148 220.005 79.372C220.005 79.58 219.989 79.772 219.989 79.98C219.973 80.396 219.973 80.828 219.957 81.26C219.925 82.428 220.085 83.852 219.317 84.828C219.125 85.084 218.885 85.276 218.581 85.356C218.229 85.436 217.941 85.26 217.605 85.276C217.269 85.292 216.901 85.356 216.565 85.228C216.325 85.132 216.133 84.924 216.021 84.684C215.973 84.556 215.941 84.428 215.925 84.284C215.909 84.124 215.845 83.98 215.797 83.804C215.685 83.452 215.653 83.084 215.637 82.716C215.605 81.916 215.573 81.116 215.477 80.316C215.381 79.516 215.205 78.716 214.949 77.948C214.885 77.724 214.789 77.564 214.661 77.388C214.549 77.244 214.421 77.1 214.309 76.956C214.037 76.604 213.781 76.268 213.509 75.932C212.981 75.26 212.453 74.604 211.925 73.932C211.525 73.42 211.397 72.7 211.925 72.204C212.165 71.98 212.485 71.9 212.821 71.884C213.029 71.884 213.221 71.82 213.429 71.868C213.541 71.884 213.637 71.916 213.733 71.964C214.085 72.108 214.405 72.316 214.725 72.508C215.061 72.7 215.365 72.924 215.653 73.164C216.085 73.532 216.485 73.948 216.901 74.332C217.333 74.012 217.781 73.676 218.229 73.356C218.949 72.828 219.669 72.14 220.469 71.756C221.269 71.356 222.293 71.5 222.869 72.188C222.981 72.252 223.109 72.332 223.205 72.412C223.461 72.556 223.701 72.78 223.797 73.068Z" fill="white"/>
</g>
<defs>
<filter id="filter0_f_50_428" x="55.4121" y="-30" width="191.751" height="110.376" filterUnits="userSpaceOnUse" color-interpolation-filters="sRGB">
<feFlood flood-opacity="0" result="BackgroundImageFix"/>
<feBlend mode="normal" in="SourceGraphic" in2="BackgroundImageFix" result="shape"/>
<feGaussianBlur stdDeviation="7" result="effect1_foregroundBlur_50_428"/>
</filter>
<filter id="filter1_ddi_50_428" x="0" y="-5" width="297.795" height="171" filterUnits="userSpaceOnUse" color-interpolation-filters="sRGB">
<feFlood flood-opacity="0" result="BackgroundImageFix"/>
<feColorMatrix in="SourceAlpha" type="matrix" values="0 0 0 0 0 0 0 0 0 0 0 0 0 0 0 0 0 0 127 0" result="hardAlpha"/>
<feOffset dx="-18" dy="-18"/>
<feGaussianBlur stdDeviation="18"/>
<feComposite in2="hardAlpha" operator="out"/>
<feColorMatrix type="matrix" values="0 0 0 0 1 0 0 0 0 1 0 0 0 0 1 0 0 0 0.25 0"/>
<feBlend mode="overlay" in2="BackgroundImageFix" result="effect1_dropShadow_50_428"/>
<feColorMatrix in="SourceAlpha" type="matrix" values="0 0 0 0 0 0 0 0 0 0 0 0 0 0 0 0 0 0 127 0" result="hardAlpha"/>
<feOffset dx="18" dy="18"/>
<feGaussianBlur stdDeviation="18"/>
<feComposite in2="hardAlpha" operator="out"/>
<feColorMatrix type="matrix" values="0 0 0 0 0 0 0 0 0 0 0 0 0 0 0 0 0 0 0.25 0"/>
<feBlend mode="overlay" in2="effect1_dropShadow_50_428" result="effect2_dropShadow_50_428"/>
<feBlend mode="normal" in="SourceGraphic" in2="effect2_dropShadow_50_428" result="shape"/>
<feColorMatrix in="SourceAlpha" type="matrix" values="0 0 0 0 0 0 0 0 0 0 0 0 0 0 0 0 0 0 127 0" result="hardAlpha"/>
<feOffset dx="1" dy="1"/>
<feGaussianBlur stdDeviation="1"/>
<feComposite in2="hardAlpha" operator="arithmetic" k2="-1" k3="1"/>
<feColorMatrix type="matrix" values="0 0 0 0 0 0 0 0 0 0 0 0 0 0 0 0 0 0 0.02 0"/>
<feBlend mode="normal" in2="shape" result="effect3_innerShadow_50_428"/>
</filter>
<linearGradient id="paint0_linear_50_428" x1="153.673" y1="-20.6088" x2="152.636" y2="111.514" gradientUnits="userSpaceOnUse">
<stop offset="0.195856" stop-color="#F0B912" stop-opacity="0"/>
<stop offset="0.546579" stop-color="#F0B912" stop-opacity="0.4"/>
<stop offset="0.83609" stop-color="#F0B912" stop-opacity="0.7"/>
<stop offset="1" stop-color="#F0B912"/>
</linearGradient>
<linearGradient id="paint1_linear_50_428" x1="136.905" y1="-10.9896" x2="136.773" y2="84.9802" gradientUnits="userSpaceOnUse">
<stop stop-color="#EBEEFE" stop-opacity="0"/>
<stop offset="0.409309" stop-color="#F0B912" stop-opacity="0.5"/>
<stop offset="0.674333" stop-color="#F0B912" stop-opacity="0.7"/>
<stop offset="0.895165" stop-color="#D5A410"/>
</linearGradient>
</defs>
</svg>
