<svg width="62" height="62" viewBox="0 0 62 62" fill="none" xmlns="http://www.w3.org/2000/svg">
<circle cx="31" cy="31" r="25" fill="url(#paint0_radial_50_423)" fill-opacity="0.5"/>
<circle cx="31" cy="31" r="25" stroke="url(#paint1_linear_50_423)" stroke-width="1.5" style="mix-blend-mode:overlay"/>
<path fill-rule="evenodd" clip-rule="evenodd" d="M28.9514 22.0707C27.8569 22.6608 26.9573 23.159 26.9608 23.1802C26.9608 23.2332 29.591 24.6078 29.6833 24.6042C29.7244 24.6042 30.0322 24.4558 30.3674 24.2792L30.9762 23.9576L31.6398 24.311L32.3033 24.6643L33.391 24.159C35.0259 23.3993 35.1969 23.3145 35.1696 23.2898C35.1354 23.2509 34.5471 22.9258 32.9532 22.0601C32.1836 21.6431 31.438 21.2297 31.2943 21.1484C31.1507 21.0636 31.0139 21 30.9899 21C30.966 21 30.0459 21.4806 28.9514 22.0707ZM24.1458 24.6431L23.0034 25.2509V27.9223C23.0034 29.3922 23.0171 30.5936 23.0376 30.5936C23.0547 30.5936 23.6157 30.3428 24.286 30.0353L25.5003 29.477V26.6608L26.092 26.9929C26.5503 27.2509 27.0052 27.5053 27.4635 27.7632L28.2434 28.1979L28.5888 28.0353C28.8077 27.9329 29.0232 27.8304 29.2387 27.7279C29.4063 27.6466 29.8167 27.4558 30.1519 27.3039C30.4871 27.1519 30.795 26.9965 30.8394 26.9611C30.8976 26.9152 30.1861 26.5088 28.2092 25.4594C26.7179 24.6678 25.449 24.0247 25.3908 24.0283C25.3327 24.0318 24.7717 24.3074 24.1458 24.6431ZM35.3714 24.8127C34.5949 25.1767 33.9588 25.4876 33.9588 25.5053C33.9588 25.523 34.3829 25.7845 34.8994 26.0848C35.4192 26.3852 35.8399 26.6466 35.8399 26.6678C35.8399 26.689 35.3816 26.9187 34.8207 27.1767C34.2598 27.4382 32.8437 28.0989 31.6706 28.6466L27.7474 30.4806C26.759 30.9399 25.8697 31.3569 25.7705 31.4028C23.7559 32.3463 23.1984 32.6078 23.1231 32.6537C23.0479 32.6996 23.0308 32.9611 23.0171 34.2792L23 35.8516L24.0193 36.3887L25.0385 36.9258L26.4545 36.265C27.231 35.9011 27.8706 35.5866 27.8706 35.5618C27.8706 35.5371 27.7269 35.4417 27.5525 35.3463C27.378 35.2509 27.0155 35.0389 26.7453 34.8763C26.4785 34.7138 26.2117 34.5654 26.1536 34.5442C26.0954 34.523 26.0475 34.4912 26.0475 34.4664C26.0475 34.4452 26.67 34.1378 27.4328 33.788C28.9103 33.106 30.0391 32.5795 32.4641 31.4452C33.5483 30.9399 34.6326 30.4311 35.7202 29.9258C36.6745 29.4806 37.7827 28.9611 38.1829 28.7703L38.9114 28.424L38.9285 26.8339L38.9456 25.2438L37.9127 24.6996C37.3449 24.3993 36.8558 24.1519 36.8318 24.1519C36.8045 24.1519 36.1478 24.4523 35.3714 24.8127ZM38.6378 30.5512C38.4839 30.629 38.1829 30.7739 37.9674 30.8728C37.7519 30.9717 37.3415 31.1625 37.0576 31.2968L36.5411 31.5406L36.5309 32.9364C36.524 33.7032 36.4967 34.3286 36.4693 34.3251C36.4077 34.3145 35.4398 33.8021 34.465 33.2615C33.7604 32.8728 33.7159 32.8551 33.5517 32.9399C33.456 32.9894 32.8848 33.2544 32.2828 33.5265C31.6808 33.8021 31.1678 34.0424 31.1438 34.0671C31.1199 34.0883 32.3307 34.7668 33.8391 35.576L36.5753 37.0459L37.7451 36.4205C38.3881 36.0777 38.9354 35.7633 38.9593 35.7244C39.0174 35.636 39.0106 30.3993 38.9559 30.4064C38.9319 30.4099 38.7883 30.4735 38.6378 30.5512ZM32.1597 36.6961C31.9579 36.7845 31.7526 36.8763 31.5508 36.9682C30.9386 37.2403 31.0583 37.2509 30.3298 36.8763C29.8441 36.6254 29.6355 36.5512 29.5431 36.5866C29.4747 36.6148 28.8898 36.8869 28.24 37.1908C27.5935 37.4947 27.0394 37.7456 27.0121 37.7456C26.7384 37.7456 27.1933 38.0247 28.9377 38.9329L30.9831 40L31.845 39.5618C32.317 39.3216 33.2747 38.8375 33.9656 38.4876C34.6599 38.1378 35.2174 37.8445 35.2072 37.8304C35.1969 37.8198 34.6155 37.5124 33.9143 37.1449L32.6419 36.4806L32.1597 36.6961Z" fill="white"/>
<defs>
<radialGradient id="paint0_radial_50_423" cx="0" cy="0" r="1" gradientUnits="userSpaceOnUse" gradientTransform="translate(28.5 19) rotate(38.6598) scale(28.8141)">
<stop stop-color="#545659"/>
<stop offset="1" stop-color="#232629"/>
</radialGradient>
<linearGradient id="paint1_linear_50_423" x1="14.5" y1="19.5" x2="52" y2="65.5" gradientUnits="userSpaceOnUse">
<stop stop-opacity="0.45"/>
<stop offset="0.992881" stop-color="white"/>
</linearGradient>
</defs>
</svg>
